<svg xmlns="http://www.w3.org/2000/svg" viewBox="0 0 742.72 675.36"><defs><style>.cls-1{fill:#2d3644;opacity:0.36;}</style></defs><g id="Layer_2" data-name="Layer 2"><g id="Layer_1-2" data-name="Layer 1"><path class="cls-1" d="M742.5,513.66C733.94,503.34,723.81,502,714,508c6.91,6.59-12,14.1.93,24.14-9.21-1-19.89-10.57-16.32,5-13.1-1-26.89,2.17-36-13-.59,8,14.45,13.64-.66,18.07-.63.17-.75,2.46-.87,3.72-.23,2.52,6.35.87,3.14,4.58-1,1.14-5,.68-7-.3-2.91-1.38-4.62-7.9-8.46-.76-4.43,8.17,3.7,4.64,5.87,6.65,3.37,3.15,6.8,6.31,10.62,9.8-6.75,1.65-7.76-6.59-16.29-5.52,20.78,21.78,14.89,48.65,18.08,80-7.16-20.67-22.11-9.37-33.2-16.89,1.81,10.07,3.4,19.06,5.37,30-9.37-6-17.36-13.54-27.33-7.21-7.84,5,5.25,8,2,14-7.84-2.42-9.48-11.35-15.59-14.62-3.55-1.89-6-7.85-11.2-5.06-3.9,2-3.51,7-4.2,10.69-.76,3.89-.13,8-.77,12.93-3.75-13.05-16.7-5.3-23.49-12.12-1.17,7.89,3.63,15.28.41,23.29-5.83-4.71-11.31-10.27-19.43-8.57-5.61,1.13-6.58-3.5-8.75-6.43-3.93-5.16-7.24-10.77-11.23-15.81-13.41-17-13.64-17.13-32-3.84-6.18,4.45-8.75.61-12.29-3-21.92-22.3-43-45.4-67.6-64.85-7.66-6-13.19-14.55-23.65-17.21-3.83-1-7.2-4.19-6.1-10.31.87-5.09-5-9.45-8.27-11.12-17-8.44-24.38-25.39-35.8-38.8,0,.06-.05.06-.05.11-1.31-1.43-2.57-2.92-3.88-4.35a10.2,10.2,0,0,0-1.09-1.09c-4.35-4.13-8.39-8.61-12.37-13.16-7-2.95-2.95,8.95,4.87,16.8,11.42,11.47,11.4,22.91,22.8,40.1s5.68,22.89,0,17.16,0,0-17.14-11.48A64,64,0,0,1,316.4,530c-.22.45-.44.9-.65,1.35Q288.4,500,261,468.65c-43.88-50.28-88-100.33-131.55-150.91C94.38,277,59.19,236.21,25.87,194,15.59,181,1.67,168.53,0,146.89l35.21,35.36-1,1.09L15.65,166.86c10.63,14.94,20.31,29.44,36.83,40,18.4,11.75,32.57,30.18,48.38,45.9,41.63,41.35,79.67,85.83,117.37,130.7l0,0c1,1.08,34.92,36.08,51.78,53,10.81,10.86,14.8,10.29,14.84,4.08Q269.2,423,253.52,405.32c-21.4-24.07-43.2-48.09-62.6-73.48-8.79-11.51-20.5-20.4-28-32.89-1.14-1.89-5.14-2.36.41-2.8,14.36-1.12,11.8-7.36,4.78-15.33-9.19-10.49-18.15-21.14-26.42-32.6,31.37,17.51,46.11,54.61,82.4,71C200.89,292,179.49,267.06,158.21,242,141.43,222.3,124.93,202.3,108,182.64c-5.19-6.07-3.28-14.42-8.94-20.9-13.41-15.24-25.11-31.92-39-49.85,9.67.36,17.55,8.85,25.86-.23,1.2-1.37,13.65,9,19.36,16,5.25,6.36,11,12.38,19.07,21.55-10-24.05-30.25-35-40.28-55.23,10.06,1.62,13.11-4.89,16.5-12.61,5.75-13,12-26,20-37.55,7.23-10.45,15.26-21.65,31-20.87,5.38.24,8.07-2.79,4.71-8.57-2-3.39-3.3-7.1-6.6-14.38,14.62,7.58,28.58,8.18,39.2,17.7,11.77,10.55,23.47,21.16,35.35,31.66,2,1.77,4.22,5.44,7.2,2.3,2-2.11,1.45-5.32.53-8.47C229.86,36,221.28,33.1,219.36,22.34L256.87,60c-6.42-18.55-18-30.87-25.65-46.22,10.39,10.43,20.9,20.87,31.23,31.36,3.48,3.61,7.3,8.43,12.18,3.8,4.18-4-1.3-7.9-3.41-10.76-7-9.46-16.21-17.2-20.88-28.42,14.64,2,19.07,18.12,31.47,23.23,6.36-2.5-2.9-6.87,1.45-9.78,5.61,1.73,7.43,7.4,11.19,11.07s7.37,7.33,10.93-.67c1.32-2.91,2.64-2.68,7.43,2.42,22.32,23.85,44.19,48.15,66.9,71.59,1.83,1.89,3.66,3.84,5.48,5.74,4.81,1,6,7.16,11,9.23,1.28-8.12-3.68-14.59-6.75-23.36a52,52,0,0,0,8.4,3.91c-20.31-26.93-45.78-50.21-61.05-80.62,13.5,3.35,13.5,3.29,34.56,26.28,3.37,3.72,6.45,7.67,9.53,11.57,3.59,4.59,6.17,3.22,8.35-1.24,1.2,1.55,3.15,3,3.43,4.7,3.22,18.2,17.56,28.64,28.69,41.14.74.8,1.48,1.66,2.22,2.46a7.88,7.88,0,0,1,6.17.78q-12.3-13.77-24.59-27.56c13.55,11.1,26.13,23.14,35.2,38.35,3.7,3.94,7.45,7.77,11.27,11.71,0,.06.06.12.11.18a.6.6,0,0,1,.08.08c13.75,11.78,27.07,24,37.61,38.82A141.15,141.15,0,0,1,470.77,153a94.33,94.33,0,0,1,8.2,13.26,26.74,26.74,0,0,0,5.36,6.76c5.37,5.05,10.28,10,13.81,16.11a40.06,40.06,0,0,1,5.29,14.37c2.71,16.2,15.79,28.12,26.58,38.67,3.77,3.67,7.43,7.4,11,11.23,24.15,25.91,44.46,55.08,70,79.67,2.39,2.3,3.76,6,11.37,5.52-27.91-29.24-50.79-59.78-75-90.61-2.91-3.67-5.82-7.39-8.73-11.06,6.34,1.05,9.2,4.77,11.65,8.55,1.65,2.47,3.14,5,5.42,6.82,29.82,23.58,55.44,51.43,80.33,80.09a165.28,165.28,0,0,0,14.27,14.73c14,12.73,20.36,30.94,33,44.92,7.82,8.66,19.6,9.77,26.62,20.88S726.18,435,734.8,445.79c9.7,12.1,8.76,26.17,6.21,41-1.39,8.06-4.56,17.55,1.49,26.89"/></g></g></svg>