<svg xmlns="http://www.w3.org/2000/svg" viewBox="0 0 18.52 19.18"><defs><style>.cls-1{fill:#dc1fe1;}</style></defs><g id="Layer_2" data-name="Layer 2"><g id="Layer_1-2" data-name="Layer 1"><g id="_8MIf1F.tif" data-name="8MIf1F.tif"><path class="cls-1" d="M17.31,19.18a1.84,1.84,0,0,1-.78-.57l-4.19-4.36-.14-.16a7.68,7.68,0,0,1-6.71,1.06A7.55,7.55,0,0,1,1.3,12,7.69,7.69,0,0,1,2.81,1.8a7.67,7.67,0,0,1,9.9,0,7.5,7.5,0,0,1,2.74,5.25,7.64,7.64,0,0,1-1.77,5.66l.26.27,4.23,4.4a1,1,0,0,1,.06,1.47,2.61,2.61,0,0,1-.54.31ZM7.75,2a5.72,5.72,0,1,0,5.71,5.72A5.74,5.74,0,0,0,7.75,2Z"/></g></g></g></svg>